<?xml version="1.0" encoding="UTF-8" standalone="no"?>
<!-- Created with Inkscape (http://www.inkscape.org/) -->

<svg
   width="150mm"
   height="220mm"
   viewBox="0 0 150 220"
   version="1.1"
   id="svg5"
   xml:space="preserve"
   inkscape:version="1.2.1 (9c6d41e410, 2022-07-14)"
   sodipodi:docname="cup.svg"
   xmlns:inkscape="http://www.inkscape.org/namespaces/inkscape"
   xmlns:sodipodi="http://sodipodi.sourceforge.net/DTD/sodipodi-0.dtd"
   xmlns="http://www.w3.org/2000/svg"
   xmlns:svg="http://www.w3.org/2000/svg"><sodipodi:namedview
     id="namedview7"
     pagecolor="#ffffff"
     bordercolor="#000000"
     borderopacity="0.25"
     inkscape:showpageshadow="2"
     inkscape:pageopacity="0.0"
     inkscape:pagecheckerboard="0"
     inkscape:deskcolor="#d1d1d1"
     inkscape:document-units="mm"
     showgrid="false"
     inkscape:zoom="0.70199214"
     inkscape:cx="608.98117"
     inkscape:cy="437.32683"
     inkscape:window-width="1920"
     inkscape:window-height="986"
     inkscape:window-x="-11"
     inkscape:window-y="-11"
     inkscape:window-maximized="1"
     inkscape:current-layer="layer1" /><defs
     id="defs2"><rect
       x="140.01274"
       y="478.46078"
       width="625.52454"
       height="227.64661"
       id="rect457" /></defs><g
     inkscape:label="Layer 1"
     inkscape:groupmode="layer"
     id="layer1"><path
       style="fill:#d1b722;fill-opacity:1;stroke:#000000;stroke-width:0;stroke-linecap:round;stroke-linejoin:round;stroke-dasharray:none;stroke-opacity:1;paint-order:fill markers stroke"
       d="m 83.228858,143.76278 c -1.144483,2.06286 3.186987,6.81291 5.345783,5.07242 0.765737,-1.6165 -3.311583,-6.71154 -5.345783,-5.07242 z"
       id="path3953-3-7-5"
       sodipodi:nodetypes="ccc" /><path
       style="fill:#d1b722;fill-opacity:1;stroke:#000000;stroke-width:0;stroke-linecap:round;stroke-linejoin:round;stroke-dasharray:none;stroke-opacity:1;paint-order:fill markers stroke"
       d="m 84.322308,136.65534 c -1.14448,2.06286 5.859873,4.35263 8.018651,2.61215 0.765747,-1.61651 -5.984454,-4.25127 -8.018651,-2.61215 z"
       id="path3953-3-7-6"
       sodipodi:nodetypes="ccc" /><path
       style="fill:#d1b722;fill-opacity:1;stroke:#000000;stroke-width:0;stroke-linecap:round;stroke-linejoin:round;stroke-dasharray:none;stroke-opacity:1;paint-order:fill markers stroke"
       d="m 88.362011,128.75817 c -1.022993,-1.76423 -7.383079,2.22646 -6.074746,4.7383 1.312486,1.66385 7.136983,-2.88445 6.074746,-4.7383 z"
       id="path3953-3-7"
       sodipodi:nodetypes="ccc" /><path
       style="fill:#d1b722;fill-opacity:1;stroke:#000000;stroke-width:0;stroke-linecap:round;stroke-linejoin:round;stroke-dasharray:none;stroke-opacity:1;paint-order:fill markers stroke"
       d="m 79.796615,122.74418 c -2.48092,-0.003 -3.586353,6.08393 -1.54906,6.4696 1.37323,0.17554 4.433723,-5.67883 1.54906,-6.4696 z"
       id="path3953-3-8"
       sodipodi:nodetypes="ccc" /><path
       style="fill:#d1b722;fill-opacity:1;stroke:#000000;stroke-width:0;stroke-linecap:round;stroke-linejoin:round;stroke-dasharray:none;stroke-opacity:1;paint-order:fill markers stroke"
       d="m 67.35713,122.80794 c -1.144477,2.06286 3.338859,7.78485 5.497649,6.04437 0.76575,-1.61651 -3.463443,-7.68349 -5.497649,-6.04437 z"
       id="path3953-3"
       sodipodi:nodetypes="ccc" /><text
       xml:space="preserve"
       style="font-style:normal;font-variant:normal;font-weight:normal;font-stretch:normal;font-size:26.2938px;font-family:'Ink Free';-inkscape-font-specification:'Ink Free';text-align:center;text-anchor:middle;fill:#000000;stroke:#000000;stroke-width:1.16459;stroke-linecap:round;stroke-linejoin:round;paint-order:fill markers stroke"
       x="98.534752"
       y="51.342735"
       id="text463"
       transform="matrix(0.94345385,0.28864106,-0.27946376,0.97443588,0,0)"><tspan
         sodipodi:role="line"
         id="tspan461"
         style="stroke-width:1.16459"
         x="98.534752"
         y="51.342735">MAKE</tspan><tspan
         sodipodi:role="line"
         style="stroke-width:1.16459"
         x="98.534752"
         y="84.209984"
         id="tspan465">A DRINK</tspan></text><path
       style="fill:#ebc1b1;fill-opacity:1;stroke:#000000;stroke-width:2.5788;stroke-linecap:round;stroke-linejoin:round;stroke-dasharray:none;stroke-opacity:1;paint-order:fill markers stroke"
       d="m 24.032109,183.32474 c 0.41388,-7.36643 3.46153,-26.08902 12.30848,-35.67595 2.05088,-2.22242 5.86187,-3.87826 8.73332,-2.92957 2.48258,0.82022 2.32209,6.14381 2.32209,6.14381 0,0 3.652809,-4.76366 7.15746,-3.55789 3.953107,1.36004 3.092747,7.56007 3.092747,7.56007 0,0 13.582656,-24.13405 19.587449,-20.61836 10.818583,6.33407 -12.714663,35.39484 -12.714663,35.39484 0,0 5.692167,4.54627 1.211374,10.1043 -7.32028,9.08019 -16.187847,13.5135 -21.465227,15.10287 -3.40996,1.02696 -20.51761,-6.45894 -20.23303,-11.52412 z"
       id="path521"
       sodipodi:nodetypes="ssscscscsss" /><path
       style="fill:#d1b722;fill-opacity:1;stroke:#000000;stroke-width:0;stroke-linecap:round;stroke-linejoin:round;stroke-dasharray:none;stroke-opacity:1;paint-order:fill markers stroke"
       d="m 59.840452,129.43449 c -1.144493,2.06285 6.710318,5.78018 7.563038,3.85745 0.765753,-1.6165 -6.774178,-5.25359 -7.563038,-3.85745 z"
       id="path3953"
       sodipodi:nodetypes="ccc" /><path
       style="fill:#d1b722;fill-opacity:0;stroke:#000000;stroke-width:2.5788;stroke-linecap:round;stroke-linejoin:round;stroke-dasharray:none;stroke-opacity:1;paint-order:fill markers stroke"
       d="M 1.2893921,189.57278 20.189549,38.715147 c 0,0 16.74696,-4.885315 64.260539,8.934633 52.253032,15.19846 64.260502,27.147499 64.260502,27.147499 L 79.982765,216.37664 c 0,0 -12.059992,5.42849 -43.298536,-4.46732 -13.2998,-4.21313 -35.3948369,-22.33654 -35.3948369,-22.33654 z"
       id="path6363"
       sodipodi:nodetypes="ccsccsc" /><path
       style="fill:#922b2f;fill-opacity:1;stroke:#000000;stroke-width:2.5788;stroke-linecap:round;stroke-linejoin:round;stroke-dasharray:none;stroke-opacity:1;paint-order:fill markers stroke"
       d="M 141.15053,28.749593 147.50785,15.347663 95.618346,2.289379 73.969072,43.869747 92.010129,49.196153 107.98934,17.409509 Z"
       id="path6419" /><text
       xml:space="preserve"
       transform="scale(0.26458333)"
       id="text455"
       style="font-style:normal;font-variant:normal;font-weight:normal;font-stretch:normal;font-size:85.3333px;font-family:'Ink Free';-inkscape-font-specification:'Ink Free';text-align:center;white-space:pre;shape-inside:url(#rect457);fill:#000000;stroke:#000000;stroke-width:3.77953;stroke-linecap:round;stroke-linejoin:round;paint-order:fill markers stroke" /></g></svg>
