<?xml version="1.0" encoding="UTF-8" standalone="no"?>
<!-- Created with Inkscape (http://www.inkscape.org/) -->

<svg
   version="1.1"
   id="svg132"
   width="954.18182"
   height="576"
   viewBox="0 0 954.18182 576"
   sodipodi:docname="logo.svg"
   inkscape:version="1.2.1 (9c6d41e410, 2022-07-14)"
   xmlns:inkscape="http://www.inkscape.org/namespaces/inkscape"
   xmlns:sodipodi="http://sodipodi.sourceforge.net/DTD/sodipodi-0.dtd"
   xmlns="http://www.w3.org/2000/svg"
   xmlns:svg="http://www.w3.org/2000/svg">
  <defs
     id="defs136" />
  <sodipodi:namedview
     id="namedview134"
     pagecolor="#ffffff"
     bordercolor="#000000"
     borderopacity="0.25"
     inkscape:showpageshadow="2"
     inkscape:pageopacity="0.0"
     inkscape:pagecheckerboard="0"
     inkscape:deskcolor="#d1d1d1"
     showgrid="false"
     inkscape:zoom="0.92562242"
     inkscape:cx="405.67297"
     inkscape:cy="338.15084"
     inkscape:window-width="1920"
     inkscape:window-height="986"
     inkscape:window-x="-11"
     inkscape:window-y="-11"
     inkscape:window-maximized="1"
     inkscape:current-layer="g138" />
  <g
     inkscape:groupmode="layer"
     inkscape:label="Image"
     id="g138">
    <path
       style="fill:#67ace7;fill-opacity:1;stroke:#000000;stroke-width:3.77953;stroke-linecap:round;stroke-linejoin:round;stroke-dasharray:none;stroke-opacity:1;paint-order:fill markers stroke"
       d="m 35.651686,330.04819 -1.080354,156.11117 42.673988,-0.54018 119.91931,-109.11577 120.99966,101.55329 98.31223,1.08036 -4.8616,-162.05312 z"
       id="path5928" />
    <rect
       style="fill:#c06c3a;fill-opacity:1;stroke:#000000;stroke-width:3.77953;stroke-linecap:round;stroke-linejoin:round;stroke-dasharray:none;stroke-opacity:1;paint-order:fill markers stroke"
       id="rect5130-2"
       width="352.19543"
       height="30.249916"
       x="45.915058"
       y="307.36075" />
    <ellipse
       style="fill:#3e6282;fill-opacity:1;stroke:#000000;stroke-width:6.96574;stroke-linecap:round;stroke-linejoin:round;stroke-dasharray:none;stroke-opacity:1;paint-order:fill markers stroke"
       id="path3920-9"
       cx="795.14062"
       cy="474.27548"
       rx="71.330795"
       ry="74.031685" />
    <ellipse
       style="fill:#3e6282;fill-opacity:1;stroke:#000000;stroke-width:4.44685;stroke-linecap:round;stroke-linejoin:round;stroke-dasharray:none;stroke-opacity:1;paint-order:fill markers stroke"
       id="path3920-0-0"
       cx="794.6004"
       cy="474.27542"
       rx="46.661739"
       ry="46.121567" />
    <path
       style="fill:#922b2f;fill-opacity:1;stroke:#000000;stroke-width:3.83064;stroke-linecap:round;stroke-linejoin:round;stroke-dasharray:none;stroke-opacity:1;paint-order:fill markers stroke"
       d="m 191.75604,281.89633 -34.3687,-41.60015 C 97.714909,159.94824 129.57739,96.242645 234.52598,82.529542 361.84166,94.534589 367.18366,175.55175 323.47558,241.54904 l -27.84969,41.13221 z"
       id="path347"
       sodipodi:nodetypes="cccccc" />
    <path
       style="fill:#7c9f4f;fill-opacity:1;stroke:#000000;stroke-width:3.77952756;stroke-linecap:round;paint-order:fill markers stroke;stroke-dasharray:none;stroke-opacity:1;stroke-linejoin:round"
       d="M 259.3041,93.315588 C 258.09609,64.452872 310.96949,41.941931 331.95791,53.882662 325.48397,100.5017 278.12063,102.34317 259.3041,93.315588 Z"
       id="path3818-2"
       sodipodi:nodetypes="ccc" />
    <path
       style="fill:#ffffff;fill-opacity:1;stroke:#ffffff;stroke-width:0;stroke-linecap:square;paint-order:fill markers stroke"
       d="M 216.34091,90.479658 160.97277,85.347976"
       id="path3086" />
    <path
       style="fill:#7c9f4f;fill-opacity:1;stroke:#000000;stroke-width:3.77952756;stroke-linecap:round;paint-order:fill markers stroke;stroke-dasharray:none;stroke-linejoin:round;stroke-opacity:1"
       d="m 227.68464,94.801074 c -34.70323,12.911486 -84.5542,-7.717232 -88.85913,-43.214165 22.19171,-8.89388 67.43928,3.354705 88.85913,43.214165 z"
       id="path3139"
       sodipodi:nodetypes="ccc" />
    <path
       style="fill:#7c9f4f;fill-opacity:1;stroke:#000000;stroke-width:3.77952756;stroke-linecap:round;paint-order:fill markers stroke;stroke-opacity:1;stroke-dasharray:none;stroke-linejoin:round"
       d="m 237.948,95.881429 c -33.88872,-16.708732 -25.85001,-64.067818 1.89062,-83.457357 26.74695,21.500805 40.6937,73.578746 -1.89062,83.457357 z"
       id="path3818"
       sodipodi:nodetypes="ccc" />
    <ellipse
       style="fill:#3e6282;fill-opacity:1;stroke:#000000;stroke-width:6.96574;stroke-linecap:round;stroke-linejoin:round;stroke-dasharray:none;stroke-opacity:1;paint-order:fill markers stroke"
       id="path3920"
       cx="202.56639"
       cy="494.80222"
       rx="71.330795"
       ry="74.031685" />
    <ellipse
       style="fill:#3e6282;fill-opacity:1;stroke:#000000;stroke-width:4.44685;stroke-linecap:round;stroke-linejoin:round;stroke-dasharray:none;stroke-opacity:1;paint-order:fill markers stroke"
       id="path3920-0"
       cx="202.02615"
       cy="494.80215"
       rx="46.661739"
       ry="46.121567" />
    <rect
       style="fill:#c06c3a;fill-opacity:1;stroke:#000000;stroke-width:3.77953;stroke-linecap:round;stroke-linejoin:round;stroke-dasharray:none;stroke-opacity:1;paint-order:fill markers stroke"
       id="rect5130"
       width="352.19543"
       height="30.249916"
       x="45.374874"
       y="278.73135" />
    <path
       style="display:inline;fill:#67ace7;fill-opacity:1;stroke:#000000;stroke-width:3.77953;stroke-linecap:round;stroke-linejoin:round;stroke-dasharray:none;stroke-opacity:1;paint-order:fill markers stroke"
       d="M 397.03014,473.19511 H 680.08292 C 728.2534,353.64699 773.71498,375.52413 893.45286,359.75793 892.97228,260.58655 833.14497,236.57216 679.54275,247.40109 597.04097,227.3537 660.62359,147.89511 522.35122,138.82551 381.54687,129.58983 398.65067,254.4234 398.65067,254.4234 Z"
       id="path5913"
       sodipodi:nodetypes="ccccscc" />
    <rect
       style="fill:#c06c3a;fill-opacity:1;stroke:#000000;stroke-width:3.77953;stroke-linecap:round;stroke-linejoin:round;stroke-dasharray:none;stroke-opacity:1;paint-order:fill markers stroke"
       id="rect5128"
       width="19.986551"
       height="65.901604"
       x="25.388323"
       y="276.03049" />
    <path
       style="fill:#67ace7;fill-opacity:1;stroke:#000000;stroke-width:3.77953;stroke-linecap:round;stroke-linejoin:round;stroke-dasharray:none;stroke-opacity:1;paint-order:fill markers stroke"
       d="m 426.1997,474.27546 207.428,-1.62053 c 0,0 -2.59878,-121.82964 -10.56934,-218.84949 -6.98159,-84.98187 -37.15001,-83.28191 -99.62679,-87.97108 -92.2112,-6.92087 -86.83384,19.28672 -92.8113,69.90538 -11.31285,95.8001 -4.42057,238.53572 -4.42057,238.53572 z"
       id="path5910"
       sodipodi:nodetypes="ccsssc" />
    <path
       style="fill:#98c9f2;fill-opacity:1;stroke:#000000;stroke-width:3.77953;stroke-linecap:round;stroke-linejoin:round;stroke-dasharray:none;stroke-opacity:1;paint-order:fill markers stroke"
       d="m 460.23086,258.74481 c -6.00639,-8.32839 -9.09507,-53.87752 6.48212,-70.22301 8.57874,-9.00186 85.88816,-2.70089 85.88816,-2.70089 0,0 46.71583,-6.03871 46.45522,71.84355 -0.0528,15.77182 -128.40448,15.53001 -138.8255,1.08035 z"
       id="path5213"
       sodipodi:nodetypes="sscss" />
    <ellipse
       style="fill:#67ace7;fill-opacity:1;stroke:#000000;stroke-width:3.77953;stroke-linecap:round;stroke-linejoin:round;stroke-dasharray:none;stroke-opacity:1;paint-order:fill markers stroke"
       id="path5854"
       cx="473.46521"
       cy="295.47684"
       rx="21.877171"
       ry="4.3214164" />
    <rect
       style="fill:#67ace7;fill-opacity:1;stroke:#000000;stroke-width:3.77953;stroke-linecap:round;stroke-linejoin:round;stroke-dasharray:none;stroke-opacity:1;paint-order:fill markers stroke"
       id="rect5920"
       width="343.55261"
       height="34.571331"
       x="315.46341"
       y="469.41388" />
    <path
       style="fill:#67ace7;fill-opacity:1;stroke:#000000;stroke-width:3.77953;stroke-linecap:round;stroke-linejoin:round;stroke-dasharray:none;stroke-opacity:1;paint-order:fill markers stroke"
       d="m 906.73853,399.19085 c 21.57868,1.64854 29.84843,-8.13308 30.24992,29.16956 0.50651,47.0603 -8.95452,36.46467 -31.33027,37.8124 -22.28983,1.34255 -21.18499,-68.68296 1.08035,-66.98196 z"
       id="path5925"
       sodipodi:nodetypes="ssss" />
    <path
       style="fill:#67ace7;fill-opacity:1;stroke:#000000;stroke-width:3.77953;stroke-linecap:round;stroke-linejoin:round;stroke-dasharray:none;stroke-opacity:1;paint-order:fill markers stroke"
       d="m 646.05177,499.66378 c -0.40802,15.56106 43.44668,31.58589 49.69629,2.16071 17.59324,-82.8347 51.21898,-107.94329 100.53449,-113.1105 48.14989,-5.04507 85.8998,47.97362 88.52748,89.34271 0.64264,10.11743 28.36191,-0.12907 28.62938,-10.26336 0.68136,-25.81603 1.31979,-80.68565 -6.60098,-97.04013 -24.11777,-49.79738 -99.14124,-49.37595 -129.52364,-46.64697 -72.77505,6.53674 -126.98712,12.48328 -131.26302,175.55754 z"
       id="path5916"
       sodipodi:nodetypes="ssssssss" />
    <path
       style="fill:#67ace7;fill-opacity:1;stroke:#000000;stroke-width:3.77953;stroke-linecap:round;stroke-linejoin:round;stroke-dasharray:none;stroke-opacity:1;paint-order:fill markers stroke"
       d="m 54.017706,485.079 c -0.903059,17.81024 50.951804,25.69284 56.178414,8.64283 13.95809,-45.53346 40.02916,-84.39342 91.28992,-85.34797 45.29782,-0.84351 81.19355,24.22377 91.83011,96.15152 1.61215,10.90188 25.00678,4.93734 32.9508,-2.70089 9.67557,-9.30313 7.47585,-26.8076 4.86159,-39.9731 C 307.59177,343.3196 257.48547,352.88155 200.40569,351.11509 119.14843,348.6004 58.593095,394.84266 54.017706,485.079 Z"
       id="path5918"
       sodipodi:nodetypes="ssssssss" />
    <path
       style="fill:#67ace7;fill-opacity:1;stroke:#000000;stroke-width:3.77953;stroke-linecap:round;stroke-linejoin:round;stroke-dasharray:none;stroke-opacity:1;paint-order:fill markers stroke"
       d="m 19.072845,484.66894 c -0.951602,-2.66749 -0.255203,-17.39638 1.399593,-20.93489 2.584204,-5.52589 12.311715,-4.20159 12.311715,-4.20159 l 0.665625,29.59176 c 0,0 -12.41333,1.049 -14.376933,-4.45528 z"
       id="path5934"
       sodipodi:nodetypes="ssccs" />
    <ellipse
       style="fill:#000000;fill-opacity:1;stroke:#000000;stroke-width:3.77953;stroke-linecap:round;stroke-linejoin:round;stroke-dasharray:none;stroke-opacity:1;paint-order:fill markers stroke"
       id="path5988"
       cx="185.63396"
       cy="152.59416"
       rx="3.8196287"
       ry="10.885942" />
    <ellipse
       style="fill:#000000;fill-opacity:1;stroke:#000000;stroke-width:3.77953;stroke-linecap:round;stroke-linejoin:round;stroke-dasharray:none;stroke-opacity:1;paint-order:fill markers stroke"
       id="path5990"
       cx="212.18037"
       cy="202.05835"
       rx="4.7745357"
       ry="10.312998" />
    <ellipse
       style="fill:#000000;fill-opacity:1;stroke:#000000;stroke-width:3.77953;stroke-linecap:round;stroke-linejoin:round;stroke-dasharray:none;stroke-opacity:1;paint-order:fill markers stroke"
       id="path5992"
       cx="162.33421"
       cy="194.22812"
       rx="4.5835543"
       ry="10.503979" />
    <ellipse
       style="fill:#000000;fill-opacity:1;stroke:#000000;stroke-width:3.77953;stroke-linecap:round;stroke-linejoin:round;stroke-dasharray:none;stroke-opacity:1;paint-order:fill markers stroke"
       id="path5994"
       cx="254.00531"
       cy="156.03183"
       rx="4.5835543"
       ry="12.413794" />
    <ellipse
       style="fill:#000000;fill-opacity:1;stroke:#000000;stroke-width:3.77953;stroke-linecap:round;stroke-linejoin:round;stroke-dasharray:none;stroke-opacity:1;paint-order:fill markers stroke"
       id="path5996"
       cx="209.69762"
       cy="255.72414"
       rx="4.5835543"
       ry="10.885942" />
    <ellipse
       style="fill:#000000;fill-opacity:1;stroke:#000000;stroke-width:3.77953;stroke-linecap:round;stroke-linejoin:round;stroke-dasharray:none;stroke-opacity:1;paint-order:fill markers stroke"
       id="path5998"
       cx="262.40848"
       cy="228.98674"
       rx="4.965517"
       ry="10.885942" />
    <ellipse
       style="fill:#000000;fill-opacity:1;stroke:#000000;stroke-width:3.77953;stroke-linecap:round;stroke-linejoin:round;stroke-dasharray:none;stroke-opacity:1;paint-order:fill markers stroke"
       id="path6000"
       cx="307.86206"
       cy="181.62334"
       rx="5.3474803"
       ry="11.649867" />
    <ellipse
       style="fill:#000000;fill-opacity:1;stroke:#000000;stroke-width:3.77953;stroke-linecap:round;stroke-linejoin:round;stroke-dasharray:none;stroke-opacity:1;paint-order:fill markers stroke"
       id="path6002"
       cx="285.70822"
       cy="126.62069"
       rx="4.965517"
       ry="10.122016" />
    <ellipse
       style="fill:#000000;fill-opacity:1;stroke:#000000;stroke-width:3.77953;stroke-linecap:round;stroke-linejoin:round;stroke-dasharray:none;stroke-opacity:1;paint-order:fill markers stroke"
       id="path6004"
       cx="224.59416"
       cy="128.72148"
       rx="4.2015915"
       ry="11.076923" />
    <ellipse
       style="fill:#000000;fill-opacity:1;stroke:#000000;stroke-width:3.77953;stroke-linecap:round;stroke-linejoin:round;stroke-dasharray:none;stroke-opacity:1;paint-order:fill markers stroke"
       id="path6006"
       cx="157.55968"
       cy="140.37135"
       rx="4.0106101"
       ry="9.3580904" />
    <ellipse
       style="fill:#000000;fill-opacity:1;stroke:#000000;stroke-width:3.77953;stroke-linecap:round;stroke-linejoin:round;stroke-dasharray:none;stroke-opacity:1;paint-order:fill markers stroke"
       id="path6008"
       cx="293.34747"
       cy="235.28912"
       rx="3.8196287"
       ry="8.7851458" />
  </g>
</svg>
