<?xml version="1.0" encoding="UTF-8"?>
<svg xmlns="http://www.w3.org/2000/svg" xmlns:xlink="http://www.w3.org/1999/xlink" width="200px" height="121px" viewBox="0 0 200 121" version="1.1">
<g id="surface1">
<path style="fill-rule:nonzero;fill:rgb(40.392157%,67.45098%,90.588235%);fill-opacity:1;stroke-width:3.77953;stroke-linecap:round;stroke-linejoin:round;stroke:rgb(0%,0%,0%);stroke-opacity:1;stroke-miterlimit:4;" d="M 35.64457 330.043388 L 34.563867 486.167355 L 77.251641 485.628099 L 197.172422 376.512397 L 318.155273 478.059917 L 416.480625 479.13843 L 411.617461 317.082645 Z M 35.64457 330.043388 " transform="matrix(0.209644,0,0,0.210069,0,0)"/>
<path style="fill-rule:nonzero;fill:rgb(75.294118%,42.352941%,22.745098%);fill-opacity:1;stroke-width:3.77953;stroke-linecap:round;stroke-linejoin:round;stroke:rgb(0%,0%,0%);stroke-opacity:1;stroke-miterlimit:4;" d="M 45.91125 307.357438 L 398.108672 307.357438 L 398.108672 337.61157 L 45.91125 337.61157 Z M 45.91125 307.357438 " transform="matrix(0.209644,0,0,0.210069,0,0)"/>
<path style="fill-rule:nonzero;fill:rgb(24.313725%,38.431373%,50.980392%);fill-opacity:1;stroke-width:6.96574;stroke-linecap:round;stroke-linejoin:round;stroke:rgb(0%,0%,0%);stroke-opacity:1;stroke-miterlimit:4;" d="M 866.463047 474.266529 C 866.463047 433.394628 834.526406 400.239669 795.136641 400.239669 C 755.746875 400.239669 723.810234 433.394628 723.810234 474.266529 C 723.810234 515.157025 755.746875 548.311983 795.136641 548.311983 C 834.526406 548.311983 866.463047 515.157025 866.463047 474.266529 Z M 866.463047 474.266529 " transform="matrix(0.209644,0,0,0.210069,0,0)"/>
<path style="fill-rule:nonzero;fill:rgb(24.313725%,38.431373%,50.980392%);fill-opacity:1;stroke-width:4.44685;stroke-linecap:round;stroke-linejoin:round;stroke:rgb(0%,0%,0%);stroke-opacity:1;stroke-miterlimit:4;" d="M 841.252852 474.266529 C 841.252852 448.809917 820.365469 428.150826 794.596289 428.150826 C 768.827109 428.150826 747.939727 448.809917 747.939727 474.266529 C 747.939727 499.741736 768.827109 520.400826 794.596289 520.400826 C 820.365469 520.400826 841.252852 499.741736 841.252852 474.266529 Z M 841.252852 474.266529 " transform="matrix(0.209644,0,0,0.210069,0,0)"/>
<path style="fill-rule:nonzero;fill:rgb(57.254902%,16.862745%,18.431373%);fill-opacity:1;stroke-width:3.83064;stroke-linecap:round;stroke-linejoin:round;stroke:rgb(0%,0%,0%);stroke-opacity:1;stroke-miterlimit:4;" d="M 191.750273 281.900826 L 157.391367 240.303719 C 97.710469 159.954545 129.572578 96.247934 234.531211 82.524793 C 361.849219 94.53719 367.178203 175.555785 323.484258 241.549587 L 295.628203 282.681818 Z M 191.750273 281.900826 " transform="matrix(0.209644,0,0,0.210069,0,0)"/>
<path style="fill-rule:nonzero;fill:rgb(48.627451%,62.352941%,30.980392%);fill-opacity:1;stroke-width:3.779528;stroke-linecap:round;stroke-linejoin:round;stroke:rgb(0%,0%,0%);stroke-opacity:1;stroke-miterlimit:4;" d="M 259.312852 93.309917 C 258.101719 64.450413 310.963008 41.950413 331.962188 53.88843 C 325.477969 100.506198 278.113359 102.347107 259.312852 93.309917 Z M 259.312852 93.309917 " transform="matrix(0.209644,0,0,0.210069,0,0)"/>
<path style=" stroke:none;fill-rule:nonzero;fill:rgb(100%,100%,100%);fill-opacity:1;" d="M 45.355469 19.007812 L 33.746094 17.929688 "/>
<path style="fill-rule:nonzero;fill:rgb(48.627451%,62.352941%,30.980392%);fill-opacity:1;stroke-width:3.779528;stroke-linecap:round;stroke-linejoin:round;stroke:rgb(0%,0%,0%);stroke-opacity:1;stroke-miterlimit:4;" d="M 227.692969 94.797521 C 192.980039 107.721074 143.137266 87.080579 138.833086 51.582645 C 161.024766 42.694215 206.265234 54.948347 227.692969 94.797521 Z M 227.692969 94.797521 " transform="matrix(0.209644,0,0,0.210069,0,0)"/>
<path style="fill-rule:nonzero;fill:rgb(48.627451%,62.352941%,30.980392%);fill-opacity:1;stroke-width:3.779528;stroke-linecap:round;stroke-linejoin:round;stroke:rgb(0%,0%,0%);stroke-opacity:1;stroke-miterlimit:4;" d="M 237.941016 95.876033 C 204.066563 79.177686 212.097305 31.816116 239.841563 12.421488 C 266.579648 33.917355 280.535625 86.002066 237.941016 95.876033 Z M 237.941016 95.876033 " transform="matrix(0.209644,0,0,0.210069,0,0)"/>
<path style="fill-rule:nonzero;fill:rgb(24.313725%,38.431373%,50.980392%);fill-opacity:1;stroke-width:6.96574;stroke-linecap:round;stroke-linejoin:round;stroke:rgb(0%,0%,0%);stroke-opacity:1;stroke-miterlimit:4;" d="M 273.902344 494.795455 C 273.902344 453.923554 241.965703 420.768595 202.557305 420.768595 C 163.167539 420.768595 131.230898 453.923554 131.230898 494.795455 C 131.230898 535.68595 163.167539 568.840909 202.557305 568.840909 C 241.965703 568.840909 273.902344 535.68595 273.902344 494.795455 Z M 273.902344 494.795455 " transform="matrix(0.209644,0,0,0.210069,0,0)"/>
<path style="fill-rule:nonzero;fill:rgb(24.313725%,38.431373%,50.980392%);fill-opacity:1;stroke-width:4.44685;stroke-linecap:round;stroke-linejoin:round;stroke:rgb(0%,0%,0%);stroke-opacity:1;stroke-miterlimit:4;" d="M 248.692148 494.795455 C 248.692148 469.338843 227.804766 448.679752 202.016953 448.679752 C 176.247773 448.679752 155.360391 469.338843 155.360391 494.795455 C 155.360391 520.270661 176.247773 540.929752 202.016953 540.929752 C 227.804766 540.929752 248.692148 520.270661 248.692148 494.795455 Z M 248.692148 494.795455 " transform="matrix(0.209644,0,0,0.210069,0,0)"/>
<path style="fill-rule:nonzero;fill:rgb(75.294118%,42.352941%,22.745098%);fill-opacity:1;stroke-width:3.77953;stroke-linecap:round;stroke-linejoin:round;stroke:rgb(0%,0%,0%);stroke-opacity:1;stroke-miterlimit:4;" d="M 45.370898 278.739669 L 397.56832 278.739669 L 397.56832 308.975207 L 45.370898 308.975207 Z M 45.370898 278.739669 " transform="matrix(0.209644,0,0,0.210069,0,0)"/>
<path style="fill-rule:nonzero;fill:rgb(40.392157%,67.45098%,90.588235%);fill-opacity:1;stroke-width:3.77953;stroke-linecap:round;stroke-linejoin:round;stroke:rgb(0%,0%,0%);stroke-opacity:1;stroke-miterlimit:4;" d="M 397.027969 473.188017 L 680.079023 473.188017 C 728.244844 353.640496 773.708906 375.52686 893.461992 359.758264 C 892.977539 260.590909 833.147578 236.566116 679.538672 247.407025 C 597.032578 227.36157 660.626367 147.886364 522.352266 138.830579 C 381.544102 129.588843 398.649023 254.417355 398.649023 254.417355 Z M 397.027969 473.188017 " transform="matrix(0.209644,0,0,0.210069,0,0)"/>
<path style="fill-rule:nonzero;fill:rgb(75.294118%,42.352941%,22.745098%);fill-opacity:1;stroke-width:3.77953;stroke-linecap:round;stroke-linejoin:round;stroke:rgb(0%,0%,0%);stroke-opacity:1;stroke-miterlimit:4;" d="M 25.396523 276.024793 L 45.370898 276.024793 L 45.370898 341.92562 L 25.396523 341.92562 Z M 25.396523 276.024793 " transform="matrix(0.209644,0,0,0.210069,0,0)"/>
<path style="fill-rule:nonzero;fill:rgb(40.392157%,67.45098%,90.588235%);fill-opacity:1;stroke-width:3.77953;stroke-linecap:round;stroke-linejoin:round;stroke:rgb(0%,0%,0%);stroke-opacity:1;stroke-miterlimit:4;" d="M 426.206953 474.266529 L 633.627422 472.64876 C 633.627422 472.64876 631.037461 350.832645 623.062617 253.803719 C 616.075313 168.82438 585.908789 170.516529 523.432969 165.830579 C 431.21918 158.913223 436.604063 185.113636 430.62293 235.747934 C 419.312813 331.530992 426.206953 474.266529 426.206953 474.266529 Z M 426.206953 474.266529 " transform="matrix(0.209644,0,0,0.210069,0,0)"/>
<path style="fill-rule:nonzero;fill:rgb(59.607843%,78.823529%,94.901961%);fill-opacity:1;stroke-width:3.77953;stroke-linecap:round;stroke-linejoin:round;stroke:rgb(0%,0%,0%);stroke-opacity:1;stroke-miterlimit:4;" d="M 460.230469 258.75 C 454.230703 250.419421 451.137656 204.86157 466.714688 188.516529 C 475.285781 179.516529 552.59332 185.820248 552.59332 185.820248 C 552.59332 185.820248 599.324414 179.77686 599.063555 257.671488 C 599.007656 273.440083 470.646211 273.198347 460.230469 258.75 Z M 460.230469 258.75 " transform="matrix(0.209644,0,0,0.210069,0,0)"/>
<path style="fill-rule:nonzero;fill:rgb(40.392157%,67.45098%,90.588235%);fill-opacity:1;stroke-width:3.77953;stroke-linecap:round;stroke-linejoin:round;stroke:rgb(0%,0%,0%);stroke-opacity:1;stroke-miterlimit:4;" d="M 495.334688 295.475207 C 495.334688 293.095041 485.552461 291.161157 473.459766 291.161157 C 461.385703 291.161157 451.584844 293.095041 451.584844 295.475207 C 451.584844 297.855372 461.385703 299.789256 473.459766 299.789256 C 485.552461 299.789256 495.334688 297.855372 495.334688 295.475207 Z M 495.334688 295.475207 " transform="matrix(0.209644,0,0,0.210069,0,0)"/>
<path style="fill-rule:nonzero;fill:rgb(40.392157%,67.45098%,90.588235%);fill-opacity:1;stroke-width:3.77953;stroke-linecap:round;stroke-linejoin:round;stroke:rgb(0%,0%,0%);stroke-opacity:1;stroke-miterlimit:4;" d="M 315.472148 469.413223 L 659.023945 469.413223 L 659.023945 503.981405 L 315.472148 503.981405 Z M 315.472148 469.413223 " transform="matrix(0.209644,0,0,0.210069,0,0)"/>
<path style="fill-rule:nonzero;fill:rgb(40.392157%,67.45098%,90.588235%);fill-opacity:1;stroke-width:3.77953;stroke-linecap:round;stroke-linejoin:round;stroke:rgb(0%,0%,0%);stroke-opacity:1;stroke-miterlimit:4;" d="M 906.747188 399.198347 C 928.323984 400.834711 936.57832 391.053719 936.988242 428.355372 C 937.491328 475.419421 928.025859 464.820248 905.666484 466.177686 C 883.363008 467.516529 884.480977 397.487603 906.747188 399.198347 Z M 906.747188 399.198347 " transform="matrix(0.209644,0,0,0.210069,0,0)"/>
<path style="fill-rule:nonzero;fill:rgb(40.392157%,67.45098%,90.588235%);fill-opacity:1;stroke-width:3.77953;stroke-linecap:round;stroke-linejoin:round;stroke:rgb(0%,0%,0%);stroke-opacity:1;stroke-miterlimit:4;" d="M 646.055508 499.667355 C 645.645586 515.231405 689.507227 531.241736 695.749219 501.82438 C 713.338594 418.983471 746.97082 393.880165 796.273242 388.710744 C 844.439063 383.671488 882.189141 436.68595 884.816367 478.059917 C 885.449883 488.17562 913.175508 477.929752 913.436367 467.795455 C 914.125781 441.985537 914.759297 387.11157 906.840352 370.747934 C 882.729492 320.950413 807.695156 321.378099 777.323672 324.11157 C 704.543906 330.63843 650.322422 336.588843 646.055508 499.667355 Z M 646.055508 499.667355 " transform="matrix(0.209644,0,0,0.210069,0,0)"/>
<path style="fill-rule:nonzero;fill:rgb(40.392157%,67.45098%,90.588235%);fill-opacity:1;stroke-width:3.77953;stroke-linecap:round;stroke-linejoin:round;stroke:rgb(0%,0%,0%);stroke-opacity:1;stroke-miterlimit:4;" d="M 54.016523 485.070248 C 53.122148 502.884298 104.977266 510.768595 110.194453 493.716942 C 124.15043 448.196281 150.217734 409.332645 201.495234 408.365702 C 246.791602 407.528926 282.678398 432.595041 293.317734 504.520661 C 294.920156 515.43595 318.322969 509.466942 326.260547 501.82438 C 335.949609 492.52686 333.750938 475.010331 331.123711 461.845041 C 307.590469 343.320248 257.486836 352.878099 200.414531 351.11157 C 119.156836 348.60124 58.600195 394.847107 54.016523 485.070248 Z M 54.016523 485.070248 " transform="matrix(0.209644,0,0,0.210069,0,0)"/>
<path style="fill-rule:nonzero;fill:rgb(40.392157%,67.45098%,90.588235%);fill-opacity:1;stroke-width:3.77953;stroke-linecap:round;stroke-linejoin:round;stroke:rgb(0%,0%,0%);stroke-opacity:1;stroke-miterlimit:4;" d="M 19.08 484.661157 C 18.129727 482.002066 18.819141 467.274793 20.477461 463.741736 C 23.048789 458.200413 32.775117 459.539256 32.775117 459.539256 L 33.445898 489.123967 C 33.445898 489.123967 21.036445 490.165289 19.08 484.661157 Z M 19.08 484.661157 " transform="matrix(0.209644,0,0,0.210069,0,0)"/>
<path style="fill-rule:nonzero;fill:rgb(0%,0%,0%);fill-opacity:1;stroke-width:3.77953;stroke-linecap:round;stroke-linejoin:round;stroke:rgb(0%,0%,0%);stroke-opacity:1;stroke-miterlimit:4;" d="M 189.458438 152.590909 C 189.458438 146.584711 187.744219 141.71281 185.638711 141.71281 C 183.533203 141.71281 181.818984 146.584711 181.818984 152.590909 C 181.818984 158.597107 183.533203 163.487603 185.638711 163.487603 C 187.744219 163.487603 189.458438 158.597107 189.458438 152.590909 Z M 189.458438 152.590909 " transform="matrix(0.209644,0,0,0.210069,0,0)"/>
<path style="fill-rule:nonzero;fill:rgb(0%,0%,0%);fill-opacity:1;stroke-width:3.77953;stroke-linecap:round;stroke-linejoin:round;stroke:rgb(0%,0%,0%);stroke-opacity:1;stroke-miterlimit:4;" d="M 216.960469 202.053719 C 216.960469 196.363636 214.817695 191.752066 212.171836 191.752066 C 209.544609 191.752066 207.401836 196.363636 207.401836 202.053719 C 207.401836 207.762397 209.544609 212.373967 212.171836 212.373967 C 214.817695 212.373967 216.960469 207.762397 216.960469 202.053719 Z M 216.960469 202.053719 " transform="matrix(0.209644,0,0,0.210069,0,0)"/>
<path style="fill-rule:nonzero;fill:rgb(0%,0%,0%);fill-opacity:1;stroke-width:3.77953;stroke-linecap:round;stroke-linejoin:round;stroke:rgb(0%,0%,0%);stroke-opacity:1;stroke-miterlimit:4;" d="M 166.912734 194.225207 C 166.912734 188.423554 164.863125 183.719008 162.329063 183.719008 C 159.795 183.719008 157.745391 188.423554 157.745391 194.225207 C 157.745391 200.02686 159.795 204.731405 162.329063 204.731405 C 164.863125 204.731405 166.912734 200.02686 166.912734 194.225207 Z M 166.912734 194.225207 " transform="matrix(0.209644,0,0,0.210069,0,0)"/>
<path style="fill-rule:nonzero;fill:rgb(0%,0%,0%);fill-opacity:1;stroke-width:3.77953;stroke-linecap:round;stroke-linejoin:round;stroke:rgb(0%,0%,0%);stroke-opacity:1;stroke-miterlimit:4;" d="M 258.586172 156.030992 C 258.586172 149.169421 256.536563 143.609504 254.0025 143.609504 C 251.468438 143.609504 249.418828 149.169421 249.418828 156.030992 C 249.418828 162.892562 251.468438 168.452479 254.0025 168.452479 C 256.536563 168.452479 258.586172 162.892562 258.586172 156.030992 Z M 258.586172 156.030992 " transform="matrix(0.209644,0,0,0.210069,0,0)"/>
<path style="fill-rule:nonzero;fill:rgb(0%,0%,0%);fill-opacity:1;stroke-width:3.77953;stroke-linecap:round;stroke-linejoin:round;stroke:rgb(0%,0%,0%);stroke-opacity:1;stroke-miterlimit:4;" d="M 214.277344 255.719008 C 214.277344 249.71281 212.227734 244.840909 209.693672 244.840909 C 207.159609 244.840909 205.11 249.71281 205.11 255.719008 C 205.11 261.743802 207.159609 266.615702 209.693672 266.615702 C 212.227734 266.615702 214.277344 261.743802 214.277344 255.719008 Z M 214.277344 255.719008 " transform="matrix(0.209644,0,0,0.210069,0,0)"/>
<path style="fill-rule:nonzero;fill:rgb(0%,0%,0%);fill-opacity:1;stroke-width:3.77953;stroke-linecap:round;stroke-linejoin:round;stroke:rgb(0%,0%,0%);stroke-opacity:1;stroke-miterlimit:4;" d="M 267.380859 228.979339 C 267.380859 222.97314 265.144922 218.10124 262.405898 218.10124 C 259.666875 218.10124 257.44957 222.97314 257.44957 228.979339 C 257.44957 235.004132 259.666875 239.876033 262.405898 239.876033 C 265.144922 239.876033 267.380859 235.004132 267.380859 228.979339 Z M 267.380859 228.979339 " transform="matrix(0.209644,0,0,0.210069,0,0)"/>
<path style="fill-rule:nonzero;fill:rgb(0%,0%,0%);fill-opacity:1;stroke-width:3.77953;stroke-linecap:round;stroke-linejoin:round;stroke:rgb(0%,0%,0%);stroke-opacity:1;stroke-miterlimit:4;" d="M 313.217578 181.617769 C 313.217578 175.183884 310.813945 169.977273 307.869961 169.977273 C 304.907344 169.977273 302.522344 175.183884 302.522344 181.617769 C 302.522344 188.051653 304.907344 193.27686 307.869961 193.27686 C 310.813945 193.27686 313.217578 188.051653 313.217578 181.617769 Z M 313.217578 181.617769 " transform="matrix(0.209644,0,0,0.210069,0,0)"/>
<path style="fill-rule:nonzero;fill:rgb(0%,0%,0%);fill-opacity:1;stroke-width:3.77953;stroke-linecap:round;stroke-linejoin:round;stroke:rgb(0%,0%,0%);stroke-opacity:1;stroke-miterlimit:4;" d="M 290.671875 126.613636 C 290.671875 121.035124 288.45457 116.497934 285.715547 116.497934 C 282.957891 116.497934 280.740586 121.035124 280.740586 126.613636 C 280.740586 132.210744 282.957891 136.747934 285.715547 136.747934 C 288.45457 136.747934 290.671875 132.210744 290.671875 126.613636 Z M 290.671875 126.613636 " transform="matrix(0.209644,0,0,0.210069,0,0)"/>
<path style="fill-rule:nonzero;fill:rgb(0%,0%,0%);fill-opacity:1;stroke-width:3.77953;stroke-linecap:round;stroke-linejoin:round;stroke:rgb(0%,0%,0%);stroke-opacity:1;stroke-miterlimit:4;" d="M 228.792305 128.714876 C 228.792305 122.597107 226.910391 117.650826 224.599922 117.650826 C 222.27082 117.650826 220.388906 122.597107 220.388906 128.714876 C 220.388906 134.832645 222.27082 139.797521 224.599922 139.797521 C 226.910391 139.797521 228.792305 134.832645 228.792305 128.714876 Z M 228.792305 128.714876 " transform="matrix(0.209644,0,0,0.210069,0,0)"/>
<path style="fill-rule:nonzero;fill:rgb(0%,0%,0%);fill-opacity:1;stroke-width:3.77953;stroke-linecap:round;stroke-linejoin:round;stroke:rgb(0%,0%,0%);stroke-opacity:1;stroke-miterlimit:4;" d="M 161.565117 140.373967 C 161.565117 135.204545 159.776367 131.020661 157.559063 131.020661 C 155.341758 131.020661 153.553008 135.204545 153.553008 140.373967 C 153.553008 145.543388 155.341758 149.727273 157.559063 149.727273 C 159.776367 149.727273 161.565117 145.543388 161.565117 140.373967 Z M 161.565117 140.373967 " transform="matrix(0.209644,0,0,0.210069,0,0)"/>
<path style="fill-rule:nonzero;fill:rgb(0%,0%,0%);fill-opacity:1;stroke-width:3.77953;stroke-linecap:round;stroke-linejoin:round;stroke:rgb(0%,0%,0%);stroke-opacity:1;stroke-miterlimit:4;" d="M 297.174727 235.283058 C 297.174727 230.429752 295.460508 226.506198 293.355 226.506198 C 291.230859 226.506198 289.535273 230.429752 289.535273 235.283058 C 289.535273 240.136364 291.230859 244.078512 293.355 244.078512 C 295.460508 244.078512 297.174727 240.136364 297.174727 235.283058 Z M 297.174727 235.283058 " transform="matrix(0.209644,0,0,0.210069,0,0)"/>
</g>
</svg>
