<?xml version="1.0" encoding="UTF-8" standalone="no"?>
<!-- Created with Inkscape (http://www.inkscape.org/) -->

<svg
   width="250mm"
   height="100mm"
   viewBox="0 0 250 100"
   version="1.1"
   id="svg5"
   xml:space="preserve"
   inkscape:version="1.2.1 (9c6d41e410, 2022-07-14)"
   sodipodi:docname="logo.svg"
   xmlns:inkscape="http://www.inkscape.org/namespaces/inkscape"
   xmlns:sodipodi="http://sodipodi.sourceforge.net/DTD/sodipodi-0.dtd"
   xmlns="http://www.w3.org/2000/svg"
   xmlns:svg="http://www.w3.org/2000/svg"><sodipodi:namedview
     id="namedview7"
     pagecolor="#ffffff"
     bordercolor="#000000"
     borderopacity="0.25"
     inkscape:showpageshadow="2"
     inkscape:pageopacity="0.0"
     inkscape:pagecheckerboard="0"
     inkscape:deskcolor="#d1d1d1"
     inkscape:document-units="mm"
     showgrid="false"
     inkscape:zoom="0.99276681"
     inkscape:cx="399.38886"
     inkscape:cy="119.36338"
     inkscape:window-width="1920"
     inkscape:window-height="986"
     inkscape:window-x="-11"
     inkscape:window-y="-11"
     inkscape:window-maximized="1"
     inkscape:current-layer="layer1" /><defs
     id="defs2" /><g
     inkscape:label="Layer 1"
     inkscape:groupmode="layer"
     id="layer1"><rect
       style="fill:#a0d2d4;fill-opacity:1;stroke:#ffffff;stroke-width:0;stroke-linecap:square;stroke-dasharray:none;stroke-opacity:1;paint-order:fill markers stroke"
       id="rect8004-3"
       width="277.77792"
       height="76.716911"
       x="-16.293875"
       y="-7.5764265"
       ry="0" /><path
       style="fill:#bcbcbc;fill-opacity:1;stroke:#ffffff;stroke-width:0;stroke-linecap:square;stroke-dasharray:none;stroke-opacity:1;paint-order:fill markers stroke"
       d="m 97.146889,72.459706 12.343591,-16.489529 15.17037,-7.255393 5.55933,6.218909 2.07297,3.674809 1.03648,4.240164 -1.60184,4.051713 -1.88452,3.863263 -2.63832,3.863261 z"
       id="path6486" /><path
       style="fill:#f0f0f0;fill-opacity:1;stroke:#ffffff;stroke-width:0;stroke-linecap:square;stroke-dasharray:none;stroke-opacity:1;paint-order:fill markers stroke"
       d="m 90.645304,68.313767 3.015229,-1.413388 16.018397,-10.270622 -2.5441,4.334391 -2.16719,1.884518 -2.82678,5.182423 -1.97874,1.413391 -1.978747,2.826777 -4.899744,1.507611 4.240165,-4.805518 4.051716,-4.993973 -2.072972,1.60184 -5.842005,2.921003 -5.936231,1.978744 z"
       id="path5512" /><path
       style="fill:#dbdbdb;fill-opacity:1;stroke:#ffffff;stroke-width:0;stroke-linecap:square;stroke-dasharray:none;stroke-opacity:1;paint-order:fill markers stroke"
       d="m 140.39657,37.59613 -2.73255,1.696065 -4.80552,2.638324 -2.44987,2.355648 -4.99398,3.109455 0.75381,1.13071 5.65356,-3.203681 4.99397,-2.072968 1.88452,-2.355649 1.60184,-0.376902 z"
       id="path5456"
       sodipodi:nodetypes="ccccccccccc" /><path
       style="fill:#ebebeb;fill-opacity:1;stroke:#ffffff;stroke-width:0;stroke-linecap:square;stroke-dasharray:none;stroke-opacity:1;paint-order:fill markers stroke"
       d="m 66.429252,60.210342 15.453044,-18.185595 38.538384,-13.568529 5.27665,0.753808 5.74778,-0.848034 2.44988,1.413388 3.95748,-0.282678 7.16117,2.355649 2.1672,0.282678 5.08819,-1.319165 1.60185,1.60184 4.89974,-0.09423 h 3.29791 l 2.16719,1.130713 -2.16719,0.188452 -2.26143,-0.848035 -3.01522,0.188453 -4.80552,2.544098 -2.5441,0.565356 -4.99398,0.848032 -1.03648,0.471131 -3.01523,0.188452 -1.50761,1.79029 -4.52285,2.355648 -8.763,5.842006 z"
       id="path5238" /><path
       style="fill:#f5f5f5;fill-opacity:1;stroke:#ffffff;stroke-width:0;stroke-linecap:square;stroke-dasharray:none;stroke-opacity:1;paint-order:fill markers stroke"
       d="m 71.7059,68.407994 h 18.845178 l 3.297904,-1.036485 4.805522,-3.297906 8.951456,-5.842006 7.72652,-3.39213 4.61707,-1.60184 4.42862,-3.863261 4.14594,-2.167197 -6.12468,0.188453 -8.66878,-0.942258 -3.39214,0.659579 -4.52284,-0.659579 -8.480329,1.319162 -2.544098,0.565353 -6.313135,-0.09423 -14.322335,9.234138 z"
       id="path5020"
       sodipodi:nodetypes="cccccccccccccccccc" /><path
       style="fill:#f0f0f0;fill-opacity:1;stroke:#ffffff;stroke-width:0;stroke-linecap:square;stroke-dasharray:none;stroke-opacity:1;paint-order:fill markers stroke"
       d="m 60.869922,68.690672 21.012374,-16.489529 6.501585,-4.051716 -6.595811,4.899748 -5.182422,5.747779 -0.942261,0.848032 -1.319162,2.73255 -1.319162,1.319165 -0.942258,4.993971 z"
       id="path4964" /><path
       style="fill:#e2e2e2;fill-opacity:0.96470606;stroke:#ffffff;stroke-width:0;stroke-linecap:square;stroke-dasharray:none;stroke-opacity:1;paint-order:fill markers stroke"
       d="m 51.635786,68.690672 16.583755,-9.045686 16.018402,-9.61104 4.334391,-1.978745 -6.690038,4.334391 -7.914975,7.255394 -5.936232,4.145938 -7.066941,4.993974 z"
       id="path4314" /><path
       style="fill:#ffffff;fill-opacity:0.964706;stroke:#cdcdcd;stroke-width:0;stroke-linecap:square;paint-order:fill markers stroke;stroke-dasharray:none;stroke-opacity:1"
       d="m 51.036868,46.639434 5.196964,-0.932788 4.930455,-1.599068 5.863243,-4.130921 3.198132,-0.533021 3.198133,-1.865577 14.924619,-2.931621 7.595566,-2.931623 h 2.798365 l 15.191135,-8.528353 4.79719,2.132088 6.92929,3.731154 -4.93045,0.799534 -6.12976,3.064878 -2.79836,-0.266512 -4.26418,0.932788 -5.59673,2.798366 -6.129755,1.732322 -3.597899,1.332556 -6.129756,3.731154 -2.665111,0.799534 -7.062541,6.396265 -6.929289,6.796031 -2.265344,3.064878 -7.462309,5.330222 -3.864411,1.998832 -4.264176,0.932788 4.7972,-2.132086 8.128588,-5.330222 2.665108,-2.665111 2.931623,-4.264176 4.130921,-5.9965 1.46581,-4.930455 0.666279,-3.997664 -6.529522,5.196964 -5.596732,3.5979 -7.595565,2.531856 7.462311,-6.929289 -4.663946,2.132089 z"
       id="path472" /><path
       style="fill:#f0f0f0;fill-opacity:0.964706;stroke:#ffffff;stroke-width:0.1;stroke-linecap:square;stroke-dasharray:none;stroke-opacity:1;paint-order:fill markers stroke"
       d="m 51.54156,68.690673 1.413389,-8.480331 2.544098,-4.334391 1.319162,-5.465101 7.726524,-2.73255 11.966689,-8.574556 -1.88452,9.328361 -8.197651,11.68401 -2.07297,1.036485 -8.574556,6.313137 z"
       id="path3188"
       sodipodi:nodetypes="ccccccccccc" /><path
       style="fill:#e1e1e1;fill-opacity:0.964706;stroke:#ffffff;stroke-width:0;stroke-linecap:square;stroke-dasharray:none;stroke-opacity:1;paint-order:fill markers stroke"
       d="m 51.54156,46.547587 -8.668781,5.465104 -1.790293,1.978742 -5.653553,3.580585 -3.957487,3.957486 -4.428617,4.145939 24.404505,3.015229 1.790291,-8.103426 2.732551,-4.522843 0.942259,-5.370875 7.255394,-7.066941 -5.182423,2.072968 z"
       id="path3718"
       sodipodi:nodetypes="ccccccccccccc" /><path
       style="fill:#d4d4d4;fill-opacity:1;stroke:#ffffff;stroke-width:0;stroke-linecap:square;stroke-dasharray:none;stroke-opacity:1;paint-order:fill markers stroke"
       d="m 153.11707,69.067576 23.08534,-14.039657 39.57487,17.431787 -4.61707,5.55933 z"
       id="path7788" /><path
       style="fill:#f7f7f7;fill-opacity:1;stroke:#ffffff;stroke-width:0;stroke-linecap:square;stroke-dasharray:none;stroke-opacity:1;paint-order:fill markers stroke"
       d="m 157.92259,32.979061 1.60184,-0.282679 2.73255,0.753809 1.41339,-0.188452 2.16719,-0.659583 3.20368,1.507615 1.13071,-0.565354 1.60184,1.036484 7.06694,-1.413388 4.80552,-0.565357 0.75381,0.471131 4.99397,-1.036484 1.03649,0.753805 2.63832,-0.47113 0.65958,0.565357 h 1.22494 l 18.65673,13.191624 2.26142,0.188452 7.63229,4.993971 1.88452,0.565356 4.61707,3.015229 16.39531,7.820747 -22.23732,14.416561 -19.78743,-7.632295 -17.33756,-6.407361 -5.55933,-2.732551 -5.55933,-3.769034 5.74778,-8.763008 -6.59581,1.319162 -16.48953,-8.48033 z"
       id="path7786"
       sodipodi:nodetypes="ccccccccccccccccccccccccccccccc" /><path
       style="fill:#ffffff;fill-opacity:1;stroke:#ffffff;stroke-width:0;stroke-linecap:square;stroke-dasharray:none;stroke-opacity:1;paint-order:fill markers stroke"
       d="m 140.4908,37.501904 -0.75381,3.109454 -1.41339,0.282676 -1.60184,2.355649 -3.86326,1.507614 -3.10945,1.60184 -2.44988,1.130709 -2.82677,1.790294 3.39213,3.486356 1.50761,1.413389 2.1672,3.392133 1.03648,2.355646 0.47113,2.826776 -1.03648,2.638325 -1.22494,3.580585 25.15831,-0.188452 1.22494,-1.319162 4.80552,-1.978745 5.84201,-4.899745 3.20368,-1.224936 5.08819,-2.732553 5.65356,-8.857231 -5.27665,-0.376904 -3.48636,-1.224937 -4.7113,-2.544098 -3.76903,-3.769037 -2.921,-2.26142 -3.58059,-4.711295 -2.63832,0.471129 -2.82678,1.696066 -4.61706,0.942261 -4.42863,0.848031 z"
       id="path7028"
       sodipodi:nodetypes="ccccccccccccccccccccccccccccccccc" /><rect
       style="fill:#3d5928;fill-opacity:1;stroke:#ffffff;stroke-width:0;stroke-linecap:square;stroke-dasharray:none;stroke-opacity:1;paint-order:fill markers stroke"
       id="rect8004"
       width="277.77792"
       height="41.270939"
       x="-14.322336"
       y="63.131348"
       ry="0" /><ellipse
       style="fill:#a0d2d4;fill-opacity:0;stroke:#ffffff;stroke-width:2.5;stroke-linecap:square;stroke-dasharray:none;stroke-opacity:1;paint-order:fill markers stroke"
       id="path8080"
       cx="125"
       cy="50"
       rx="125"
       ry="50" /><path
       style="fill:#ffffff;fill-opacity:1;stroke:#ffffff;stroke-width:0;stroke-linecap:square;stroke-dasharray:none;stroke-opacity:1;paint-order:fill markers stroke"
       d="M 0,49.038033 3.9976657,36.245503 13.858575,26.651106 32.247837,15.990663 56.500344,7.7288206 82.618428,2.6651106 110.60209,0.26651106 136.18715,0 l 24.78553,1.8655774 39.17712,7.4623095 18.65578,7.1957981 11.45997,6.129755 10.66044,8.261842 7.99534,12.52602 1.06604,10.127419 -3.46464,8.261845 -5.86325,7.72882 -8.79486,7.195799 -19.72182,9.061376 -29.84924,9.061375 -39.97666,5.06371 L 105.80489,99.408624 70.35892,95.410958 45.573391,89.014693 24.519017,79.686805 6.1297541,65.828229 0.79953317,55.434301 -4.2641768,40.243169 c 0,0 -32.7808602,5.06371 -32.7808602,6.129753 0,1.066046 15.724153,73.823568 15.724153,73.823568 l 287.831944,-3.73116 2.13209,-132.189482 -307.287252,2.132088 23.985994,95.94398 z"
       id="path8136" /></g></svg>
